<svg width="54" height="54" viewBox="0 0 54 54" fill="none" xmlns="http://www.w3.org/2000/svg">
<path d="M27 36C30.7279 36 33.75 32.9779 33.75 29.25C33.75 25.5221 30.7279 22.5 27 22.5C23.2721 22.5 20.25 25.5221 20.25 29.25C20.25 32.9779 23.2721 36 27 36Z" stroke="#212121" stroke-width="3"/>
<path d="M4.5 30.0681C4.5 23.1736 4.5 19.7262 6.1853 17.2499C6.91488 16.1778 7.85239 15.2573 8.94429 14.541C10.565 13.4778 12.594 13.0978 15.7005 12.9619C17.1829 12.9619 18.4593 11.859 18.75 10.4318C19.1861 8.291 21.1006 6.75 23.3242 6.75H30.6758C32.8993 6.75 34.8138 8.291 35.2501 10.4318C35.5408 11.859 36.817 12.9619 38.2995 12.9619C41.4061 13.0978 43.4349 13.4778 45.0558 14.541C46.1475 15.2573 47.0851 16.1778 47.8147 17.2499C49.5 19.7262 49.5 23.1736 49.5 30.0681C49.5 36.9628 49.5 40.4102 47.8147 42.8866C47.0851 43.9585 46.1475 44.879 45.0558 45.5954C42.5335 47.25 39.0224 47.25 31.9999 47.25H22C14.9777 47.25 11.4665 47.25 8.94429 45.5954C7.85239 44.879 6.91488 43.9585 6.1853 42.8866C5.70929 42.187 5.36774 41.4101 5.12264 40.5" stroke="#212121" stroke-width="3" stroke-linecap="round"/>
<path d="M42.75 22.5H40.5" stroke="#212121" stroke-width="3" stroke-linecap="round"/>
</svg>
