<svg width="54" height="54" viewBox="0 0 54 54" fill="none" xmlns="http://www.w3.org/2000/svg">
<path d="M49.5 30.2344C49.5 38.7196 49.5 42.9624 46.8639 45.5983C44.228 48.2344 39.9852 48.2344 31.5 48.2344H22.5C14.0147 48.2344 9.77209 48.2344 7.13603 45.5983C4.5 42.9624 4.5 38.7196 4.5 30.2344C4.5 21.7491 4.5 17.5065 7.13603 14.8704C9.77209 12.2344 14.0147 12.2344 22.5 12.2344H31.5C39.9852 12.2344 44.228 12.2344 46.8639 14.8704C48.3572 16.3636 49.0045 18.3723 49.2851 21.3755" stroke="#212121" stroke-width="3" stroke-linecap="round"/>
<path d="M8.97266 13.5C9.22562 11.4052 9.75374 9.95758 10.8563 8.85883C12.9726 6.75 16.3786 6.75 23.1907 6.75H30.4159C37.228 6.75 40.634 6.75 42.7501 8.85883C43.8529 9.95758 44.3809 11.4052 44.6338 13.5" stroke="#212121" stroke-width="3"/>
<path d="M39.375 25.7344C41.239 25.7344 42.75 24.2233 42.75 22.3594C42.75 20.4954 41.239 18.9844 39.375 18.9844C37.511 18.9844 36 20.4954 36 22.3594C36 24.2233 37.511 25.7344 39.375 25.7344Z" stroke="#212121" stroke-width="3"/>
<path d="M4.5 31.3596L8.44108 27.9112C10.4914 26.1173 13.5816 26.2201 15.5081 28.1466L25.16 37.7984C26.7062 39.3448 29.1402 39.5556 30.9294 38.2981L31.6003 37.8267C34.1748 36.0173 37.658 36.227 39.9971 38.3321L47.25 44.8596" stroke="#212121" stroke-width="3" stroke-linecap="round"/>
</svg>
