<svg width="30" height="30" viewBox="0 0 30 30" xmlns="http://www.w3.org/2000/svg">
  <path
    fill-rule="evenodd"
    clip-rule="evenodd"
    d="M17.5051 2.08289L27.8254 10.5261L27.8785 10.5845C28.0393 10.7612 28.2854 11.0427 28.4938 11.3785C28.6925 11.6989 28.9284 12.1807 28.9284 12.7454V26.7832C28.9284 27.9658 27.9714 28.9287 26.7856 28.9287H20.1C19.2124 28.9287 18.4928 28.2091 18.4928 27.3215V22.2793C18.4928 20.3517 16.9346 18.7935 15.0179 18.7935C13.1012 18.7935 11.5429 20.3517 11.5429 22.2793V27.3215C11.5429 28.2091 10.8234 28.9287 9.9358 28.9287H3.21415C2.02827 28.9287 1.07129 27.9658 1.07129 26.7832V12.5814C1.07129 11.8824 1.46021 11.3187 1.68185 11.0388C1.8111 10.8756 1.93779 10.7427 2.03162 10.6505C2.07918 10.6038 2.11997 10.566 2.15065 10.5383C2.16602 10.5244 2.17897 10.513 2.18911 10.5042L2.20219 10.4929L2.20708 10.4887L2.20998 10.4863C2.20998 10.4863 2.21082 10.4856 2.90075 11.3053L2.21082 10.4856L2.22149 10.4766L12.4593 2.08529C13.8697 0.734546 16.0934 0.733485 17.5051 2.08289ZM3.59178 12.1243L3.58572 12.1296C3.57493 12.1394 3.5565 12.1564 3.53299 12.1795C3.48469 12.2269 3.42187 12.2932 3.36162 12.3693C3.2995 12.4477 3.25486 12.518 3.22887 12.5727C3.22123 12.5887 3.2167 12.6003 3.21415 12.6076V26.7832L3.21421 26.785L3.2149 26.7858H9.40008V22.2793C9.40008 19.1731 11.9129 16.6506 15.0179 16.6506C18.123 16.6506 20.6357 19.1731 20.6357 22.2793V26.7858H26.7848L26.7856 26.7832V12.7454C26.7856 12.7489 26.7864 12.7492 26.7856 12.7454C26.7819 12.73 26.7629 12.6531 26.6729 12.5082C26.5829 12.3632 26.4647 12.2184 26.3441 12.0828L16.0756 3.68202L16.0406 3.64767C15.4529 3.06958 14.5125 3.07002 13.9252 3.64868L13.8903 3.68308L3.59178 12.1243Z"
    fill="#007FA4"
  />
</svg>
