<svg width="50" height="50" viewBox="0 0 50 50" fill="none" xmlns="http://www.w3.org/2000/svg">
<path d="M28.7871 9.46909L28.3905 8.91353C26.7286 6.58709 23.2711 6.58709 21.6092 8.91353L21.2126 9.46909C20.3351 10.6974 18.862 11.3552 17.3618 11.1884L15.593 10.9919C12.9392 10.6971 10.6968 12.9394 10.9917 15.5932L11.1882 17.362C11.3549 18.8623 10.6972 20.3353 9.46885 21.2128L8.91329 21.6095C6.58685 23.2713 6.58685 26.7288 8.91329 28.3907L9.46885 28.7874C10.6972 29.6649 11.3549 31.138 11.1882 32.6382L10.9917 34.407C10.6968 37.0607 12.9392 39.3032 15.593 39.0082L17.3618 38.8118C18.862 38.6451 20.3351 39.3028 21.2126 40.5311L21.6092 41.0865C23.2711 43.413 26.7286 43.413 28.3905 41.0865L28.7871 40.5311C29.6646 39.3028 31.1378 38.6451 32.638 38.8118L34.4067 39.0082C37.0605 39.3032 39.303 37.0607 39.008 34.407L38.8115 32.6382C38.6448 31.138 39.3026 29.6649 40.5309 28.7874L41.0863 28.3907C43.4128 26.7288 43.4128 23.2713 41.0863 21.6095L40.5309 21.2128C39.3026 20.3353 38.6448 18.8623 38.8115 17.362L39.008 15.5932C39.303 12.9394 37.0605 10.6971 34.4067 10.9919L32.638 11.1884C31.1378 11.3552 29.6646 10.6974 28.7871 9.46909Z" stroke="white" stroke-width="3" stroke-linecap="round" stroke-linejoin="round"/>
<path d="M18.75 24.9999L22.5394 28.7893C22.7477 28.9976 23.0856 28.9976 23.294 28.7893L31.25 20.8333" stroke="white" stroke-width="3" stroke-linecap="round" stroke-linejoin="round"/>
</svg>
