<svg width="40" height="40" viewBox="0 0 34 34" fill="none" xmlns="http://www.w3.org/2000/svg">
<g clip-path="url(#clip0_2568_4081)">
<path d="M23.5057 1.29405C26.612 2.58075 29.267 4.75968 31.1351 7.55531C33.0029 10.3509 34 13.6377 34 17C34 18.1736 33.0486 19.125 31.875 19.125C30.7014 19.125 29.75 18.1736 29.75 17C29.75 14.4783 29.0022 12.0132 27.6012 9.91648C26.2002 7.81977 24.2091 6.18556 21.8792 5.22055C19.5495 4.25552 16.9859 4.00303 14.5126 4.49499C12.0394 4.98695 9.76752 6.20128 7.98439 7.98439C6.20128 9.76752 4.98695 12.0394 4.49499 14.5126C4.00303 16.9859 4.25552 19.5495 5.22055 21.8792C6.18556 24.2091 7.81977 26.2002 9.91648 27.6012C12.0132 29.0022 14.4783 29.75 17 29.75C18.1736 29.75 19.125 30.7014 19.125 31.875C19.125 33.0486 18.1736 34 17 34C13.6377 34 10.351 33.0029 7.55531 31.1351C4.75968 29.267 2.58075 26.612 1.29405 23.5057C0.00736565 20.3993 -0.32929 16.9812 0.326657 13.6835C0.982606 10.3858 2.6017 7.35669 4.97919 4.97919C7.35669 2.6017 10.3858 0.982606 13.6835 0.326657C16.9812 -0.32929 20.3993 0.00736565 23.5057 1.29405ZM24.8776 21.8724L27.625 24.6198L30.3724 21.8724C31.2022 21.0425 32.5478 21.0425 33.3776 21.8724C34.2074 22.7022 34.2074 24.0478 33.3776 24.8776L30.6302 27.625L33.3776 30.3724C34.2074 31.2022 34.2074 32.5478 33.3776 33.3776C32.5478 34.2074 31.2022 34.2074 30.3724 33.3776L27.625 30.6302L24.8776 33.3776C24.0478 34.2074 22.7022 34.2074 21.8724 33.3776C21.0425 32.5478 21.0425 31.2022 21.8724 30.3724L24.6198 27.625L21.8724 24.8776C21.0425 24.0478 21.0425 22.7022 21.8724 21.8724C22.7022 21.0425 24.0478 21.0425 24.8776 21.8724ZM17 6.375C18.0898 6.375 18.988 7.19534 19.1107 8.25218L19.125 8.5V17C19.125 18.0898 18.3047 18.988 17.2478 19.1107L17 19.125H10.625C9.4514 19.125 8.5 18.1736 8.5 17C8.5 15.9102 9.32034 15.012 10.3772 14.8893L10.625 14.875H14.875V8.5C14.875 7.32641 15.8264 6.375 17 6.375Z" fill="white"/>
</g>
<defs>
<clipPath id="clip0_2568_4081">
<rect width="40" height="40" fill="white"/>
</clipPath>
</defs>
</svg>
