<svg width="40" height="40" viewBox="0 0 40 40" fill="none" xmlns="http://www.w3.org/2000/svg">
<g clip-path="url(#clip0_268_983)">
<path d="M0 32.52C0 34.6 0.733333 36.36 2.2 37.8C3.66667 39.24 5.44 39.9733 7.52 40H32.52C34.5733 40 36.3333 39.2667 37.8 37.8C39.2667 36.3333 40 34.5733 40 32.52V7.52C40 5.44 39.2667 3.66667 37.8 2.2C36.3333 0.733333 34.5733 0 32.52 0H7.52C5.44 0 3.66667 0.733333 2.2 2.2C0.733333 3.66667 0 5.44 0 7.52L0 32.52ZM5 32.52V7.52C5 6.82667 5.24 6.24 5.72 5.76C6.2 5.28 6.8 5.02667 7.52 5H32.52C33.1867 5 33.7733 5.25333 34.28 5.76C34.7867 6.26667 35.0267 6.85333 35 7.52V32.52C35 33.2133 34.76 33.8 34.28 34.28C33.8 34.76 33.2133 35 32.52 35H7.52C6.82667 35 6.22667 34.76 5.72 34.28C5.21333 33.8 4.97333 33.2133 5 32.52ZM12.2 25.32C12.2 26.0133 12.44 26.6 12.92 27.08C13.4 27.56 14 27.8133 14.72 27.84C15.44 27.8667 16.0267 27.6133 16.48 27.08L20 23.56L23.52 27.08C24 27.5867 24.5867 27.84 25.28 27.84C25.9733 27.84 26.5733 27.5867 27.08 27.08C27.5867 26.5733 27.8267 25.9867 27.8 25.32C27.7733 24.6533 27.5333 24.0667 27.08 23.56L23.52 20L27.08 16.48C27.56 16 27.8 15.4133 27.8 14.72C27.8 14.0267 27.56 13.44 27.08 12.96C26.6 12.48 26 12.2267 25.28 12.2C24.56 12.1733 23.9733 12.4267 23.52 12.96L20 16.48L16.48 12.96C16 12.4533 15.4133 12.2 14.72 12.2C14.0267 12.2 13.4267 12.4533 12.92 12.96C12.4133 13.4667 12.1733 14.0533 12.2 14.72C12.2267 15.3867 12.4667 15.9733 12.92 16.48L16.48 20L12.92 23.56C12.44 24.04 12.2 24.6267 12.2 25.32Z" fill="white"/>
</g>
<defs>
<clipPath id="clip0_268_983">
<rect width="40" height="40" fill="white"/>
</clipPath>
</defs>
</svg>
