<svg width="50" height="50" viewBox="0 0 50 50" fill="none" xmlns="http://www.w3.org/2000/svg">
<path d="M38.5418 14.5834C41.4183 14.5834 43.7502 12.2516 43.7502 9.37508C43.7502 6.4986 41.4183 4.16675 38.5418 4.16675C35.6653 4.16675 33.3335 6.4986 33.3335 9.37508C33.3335 12.2516 35.6653 14.5834 38.5418 14.5834Z" stroke="white" stroke-width="3"/>
<path d="M18.75 35.4167L16.6651 37.9186C15.1292 39.7617 14.3612 40.6832 13.3114 41.1751C12.2615 41.6667 11.0619 41.6667 8.66277 41.6667H6.25" stroke="white" stroke-width="3" stroke-linecap="round"/>
<path d="M7.56138 18.7163C6.81109 19.1426 6.54845 20.0964 6.97476 20.8468C7.40105 21.597 8.35488 21.8597 9.10518 21.4332L7.56138 18.7163ZM43.75 26.5616C44.6129 26.5616 45.3125 25.862 45.3125 24.9991C45.3125 24.1361 44.6129 23.4366 43.75 23.4366V26.5616ZM10.5524 17.0168L7.56138 18.7163L9.10518 21.4332L12.0962 19.7339L10.5524 17.0168ZM31.5129 21.9603L31.6427 22.1551L34.2429 20.4216L34.1129 20.2268L31.5129 21.9603ZM23.0129 12.3067C22.7995 12.2846 22.6104 12.2711 22.4437 12.2637L22.3052 15.3856C22.4081 15.3902 22.5358 15.399 22.6904 15.4151L23.0129 12.3067ZM12.0962 19.7339C16.926 16.9897 19.15 15.7567 21.3695 15.4502L20.942 12.3546C17.9856 12.7628 15.1529 14.4029 10.5524 17.0168L12.0962 19.7339ZM39.8764 26.5616H43.75V23.4366H39.8764V26.5616ZM22.4437 12.2637C21.8956 12.2394 21.3785 12.2943 20.942 12.3546L21.3695 15.4502C21.7406 15.399 22.0387 15.3738 22.3052 15.3856L22.4437 12.2637ZM31.6427 22.1551C33.4781 24.908 36.5677 26.5616 39.8764 26.5616V23.4366C37.6127 23.4366 35.4985 22.3051 34.2429 20.4216L31.6427 22.1551ZM34.1129 20.2268C31.66 16.5475 27.9768 12.822 23.0129 12.3067L22.6904 15.4151C26.2372 15.7832 29.2195 18.5205 31.5129 21.9603L34.1129 20.2268Z" fill="white"/>
<path d="M29.1667 17.7083L24.54 23.4908C22.7975 25.6687 21.9261 26.7578 21.7871 27.9437C21.709 28.6103 21.7931 29.286 22.0323 29.9133C22.4577 31.0289 23.5694 31.871 25.7929 33.5553C27.4865 34.8385 28.3331 35.4799 28.9071 36.3185C29.2344 36.7968 29.4936 37.3185 29.6773 37.868C29.9992 38.832 29.9992 39.8943 29.9992 42.0191V45.8328" stroke="white" stroke-width="3" stroke-linecap="round"/>
</svg>
