<svg width="50" height="50" viewBox="0 0 50 50" fill="none" xmlns="http://www.w3.org/2000/svg">
<path d="M47.9168 24.9999C47.9168 37.6564 37.6566 47.9166 25.0002 47.9166C12.3436 47.9166 2.0835 37.6564 2.0835 24.9999C2.0835 12.3434 12.3436 2.08325 25.0002 2.08325C37.6566 2.08325 47.9168 12.3434 47.9168 24.9999ZM6.26439 24.9999C6.26439 35.3474 14.6527 43.7358 25.0002 43.7358C35.3477 43.7358 43.736 35.3474 43.736 24.9999C43.736 14.6524 35.3477 6.26415 25.0002 6.26415C14.6527 6.26415 6.26439 14.6524 6.26439 24.9999Z" fill="white"/>
<path d="M24.9998 10.4167C23.8492 10.4167 22.9165 11.3495 22.9165 12.5001V25.9724C22.9165 25.9724 22.9165 26.5155 23.1805 26.924C23.3571 27.2705 23.6325 27.5715 23.9944 27.7805L33.619 33.3374C34.6155 33.9126 35.8896 33.5711 36.4648 32.5747C37.04 31.5782 36.6988 30.304 35.7023 29.7288L27.0832 24.7526V12.5001C27.0832 11.3495 26.1505 10.4167 24.9998 10.4167Z" fill="white"/>
</svg>
