<svg width="59" height="45" viewBox="0 0 59 45" fill="none" xmlns="http://www.w3.org/2000/svg">
<path d="M16.1088 1H7.04354C4.92811 1 3.87038 1 3.0624 1.41176C2.35166 1.77393 1.77382 2.35186 1.4117 3.0627C1 3.87081 1 4.9287 1 7.04444V28.9556C1 31.0713 1 32.1293 1.4117 32.9373C1.77382 33.6481 2.35166 34.2261 3.0624 34.5882C3.87038 35 4.92811 35 7.04354 35H10.443M16.1088 1L27.4405 12.3333M16.1088 1V9.31111C16.1088 10.369 16.1088 10.8979 16.3147 11.302C16.4958 11.6574 16.7846 11.9464 17.14 12.1275C17.544 12.3333 18.0728 12.3333 19.1306 12.3333H27.4405M27.4405 12.3333V14.2222M8.55442 27.4444H13.2759M8.55442 19.8889H17.9975M8.55442 12.3333H10.443M17.9975 35L21.8219 34.235C22.1552 34.1683 22.322 34.1349 22.4774 34.0739C22.6155 34.0199 22.7467 33.9496 22.8682 33.8648C23.0053 33.7692 23.1254 33.6491 23.366 33.4084L31.2177 25.5556C32.2608 24.5123 32.2608 22.821 31.2177 21.7778C30.1746 20.7345 28.4836 20.7345 27.4405 21.7778L19.5888 29.6306C19.3482 29.8713 19.2281 29.9914 19.1325 30.1286C19.0477 30.25 18.9775 30.3813 18.9234 30.5194C18.8624 30.6748 18.829 30.8416 18.7623 31.175L17.9975 35Z" stroke="#EFEFEF" stroke-width="2" stroke-linecap="round" stroke-linejoin="round"/>
<path d="M44.5 31C48.6421 31 52 27.6421 52 23.5C52 19.3579 48.6421 16 44.5 16C40.3579 16 37 19.3579 37 23.5C37 27.6421 40.3579 31 44.5 31Z" stroke="#EFEFEF" stroke-width="2" stroke-miterlimit="10"/>
<path d="M31 43.9752L31.4757 41.4371C32.0377 38.5059 33.6482 35.8569 36.0275 33.9502C38.4068 32.0435 41.4046 30.9997 44.5 31C47.5991 31.0007 50.5998 32.0481 52.9796 33.9597C55.3594 35.8713 56.9677 38.5261 57.5243 41.4619L58 44" stroke="#EFEFEF" stroke-width="2" stroke-miterlimit="10"/>
</svg>
