<svg width="63" height="63" viewBox="0 0 63 63" fill="none" xmlns="http://www.w3.org/2000/svg">
<path fill-rule="evenodd" clip-rule="evenodd" d="M57.75 31.5C57.75 45.9973 45.9973 57.75 31.5 57.75C17.0025 57.75 5.25 45.9973 5.25 31.5C5.25 17.0025 17.0025 5.25 31.5 5.25C45.9973 5.25 57.75 17.0025 57.75 31.5ZM31.5 46.5937C32.5873 46.5937 33.4687 45.7123 33.4687 44.625V28.875C33.4687 27.7877 32.5873 26.9062 31.5 26.9062C30.4127 26.9062 29.5312 27.7877 29.5312 28.875V44.625C29.5312 45.7123 30.4127 46.5937 31.5 46.5937ZM31.5 18.375C32.9498 18.375 34.125 19.5503 34.125 21C34.125 22.4497 32.9498 23.625 31.5 23.625C30.0502 23.625 28.875 22.4497 28.875 21C28.875 19.5503 30.0502 18.375 31.5 18.375Z" fill="#212121"/>
</svg>
