<svg width="68" height="68" viewBox="0 0 68 68" fill="none" xmlns="http://www.w3.org/2000/svg">
<path fill-rule="evenodd" clip-rule="evenodd" d="M62.3332 23.4979C62.3332 33.3459 54.3171 41.3294 44.4285 41.3294C42.6242 41.3294 38.5159 40.9146 36.5173 39.256L34.0188 41.7442C32.55 43.207 32.9467 43.6377 33.6001 44.3472C33.8726 44.6433 34.1902 44.9878 34.4353 45.4763C34.4353 45.4763 36.5173 48.379 34.4353 51.2818C33.1861 52.9404 29.6884 55.2626 25.6912 51.2818L24.8584 52.1111C24.8584 52.1111 27.3567 55.0138 25.2748 57.9166C24.0257 59.5755 20.6946 61.2341 17.7799 58.3314L14.8652 61.2341C12.8665 63.2245 10.4238 62.0634 9.45229 61.2341L6.954 58.7459C4.62222 56.4237 5.98242 53.908 6.954 52.9404L28.606 31.377C28.606 31.377 26.5241 28.0594 26.5241 23.4979C26.5241 13.6499 34.5402 5.6665 44.4285 5.6665C54.3171 5.6665 62.3332 13.6499 62.3332 23.4979ZM44.4293 29.7184C47.8786 29.7184 50.6748 26.9335 50.6748 23.4982C50.6748 20.0628 47.8786 17.2779 44.4293 17.2779C40.9797 17.2779 38.1835 20.0628 38.1835 23.4982C38.1835 26.9335 40.9797 29.7184 44.4293 29.7184Z" fill="#007FA4"/>
</svg>
