<svg width="65" height="65" viewBox="0 0 65 65" fill="none" xmlns="http://www.w3.org/2000/svg">
<g clip-path="url(#clip0_2325_3758)">
<path fill-rule="evenodd" clip-rule="evenodd" d="M43.3335 10.2119V54.7875C43.3335 57.2979 41.0793 59.2072 38.6031 58.7945L15.3597 54.9208C12.7478 54.4853 10.8335 52.2257 10.8335 49.5778V15.4216C10.8335 12.7737 12.7478 10.5139 15.3597 10.0786L38.6031 6.20472C41.0793 5.79202 43.3335 7.70158 43.3335 10.2119ZM48.7502 13.5415C51.6058 13.5415 53.9452 15.7512 54.152 18.5539L54.1668 18.9581V46.0415C54.1668 48.8971 51.9572 51.2365 49.1544 51.4433L48.7502 51.4582H46.0418V13.5415H48.7502ZM31.146 28.4373C28.9024 28.4373 27.0835 30.2562 27.0835 32.4998C27.0835 34.7434 28.9024 36.5623 31.146 36.5623C33.3896 36.5623 35.2085 34.7434 35.2085 32.4998C35.2085 30.2562 33.3896 28.4373 31.146 28.4373Z" fill="#8D0000"/>
</g>
<defs>
<clipPath id="clip0_2325_3758">
<rect width="65" height="65" fill="white"/>
</clipPath>
</defs>
</svg>
