<svg width="36" height="36" viewBox="0 0 36 36" fill="none" xmlns="http://www.w3.org/2000/svg">
<g clip-path="url(#clip0_2_4148)">
<path d="M35.3819 1.75711C29.6912 0.942793 23.6895 1.90212 18.0001 4.52255C12.311 1.90168 6.30951 0.942428 0.618052 1.75711L0 1.84537V31.6885L0.821924 31.5707C6.33021 30.7818 12.1616 31.7429 17.6463 34.3286L17.7565 34.3877L17.9631 34.5142L17.9786 34.5069L18.012 34.5248L18.2762 34.3667L18.3164 34.3477C23.8381 31.7429 29.6687 30.7842 35.1781 31.5707L36 31.6885V1.84537L35.3819 1.75711ZM17.28 32.5842C13.1298 30.7831 8.82808 29.8631 4.61535 29.8631C3.55014 29.8631 2.49012 29.9218 1.44005 30.0402V3.10151C6.63229 2.48419 12.085 3.40242 17.28 5.77196V32.5842ZM34.5599 30.0403C29.3607 29.4525 23.9269 30.3268 18.72 32.5849V5.77196C23.915 3.40279 29.3692 2.48485 34.5599 3.10151V30.0403Z" fill="#007FA4"/>
<path d="M20.546 27.045L21.1605 28.3472C24.8189 26.6203 28.6787 25.9836 32.3247 26.5047L32.5287 25.0795C28.6038 24.5169 24.4599 25.1972 20.546 27.045Z" fill="#007FA4"/>
<path d="M20.546 21.2724L21.1605 22.5746C24.8189 20.848 28.6787 20.211 32.3247 20.7324L32.5287 19.3072C28.6028 18.7457 24.4599 19.4249 20.546 21.2724Z" fill="#007FA4"/>
<path d="M20.546 15.5001L21.1605 16.8023C24.8189 15.0754 28.6787 14.4387 32.3247 14.9598L32.5287 13.5346C28.6038 12.9727 24.4599 13.6522 20.546 15.5001Z" fill="#007FA4"/>
<path d="M20.546 9.72775L21.1605 11.03C24.8189 9.30312 28.6787 8.66605 32.3247 9.18743L32.5287 7.76223C28.6038 7.19968 24.4599 7.87996 20.546 9.72775Z" fill="#007FA4"/>
<path d="M3.47131 25.0795L3.67519 26.5047C7.32193 25.9847 11.1814 26.62 14.8394 28.3472L15.4539 27.045C11.5411 25.1976 7.39827 24.5184 3.47131 25.0795Z" fill="#007FA4"/>
<path d="M3.47131 19.3071L3.67519 20.7323C7.32193 20.2113 11.181 20.848 14.8394 22.5745L15.4539 21.2723C11.5404 19.4249 7.39615 18.7456 3.47131 19.3071Z" fill="#007FA4"/>
<path d="M3.47131 13.5345L3.67519 14.9597C7.32193 14.4397 11.1814 15.075 14.8394 16.8022L15.4539 15.5C11.5411 13.6526 7.39827 12.9727 3.47131 13.5345Z" fill="#007FA4"/>
<path d="M3.47131 7.76215L3.67519 9.18736C7.32193 8.66671 11.1814 9.30304 14.8394 11.0299L15.4539 9.72768C11.5411 7.88032 7.39827 7.20041 3.47131 7.76215Z" fill="#007FA4"/>
</g>
<defs>
<clipPath id="clip0_2_4148">
<rect width="36" height="36" fill="white"/>
</clipPath>
</defs>
</svg>
