<svg width="40" height="40" viewBox="0 0 32 32" fill="none" xmlns="http://www.w3.org/2000/svg">
<path d="M10.6663 22.6666H6.66634C6.31272 22.6666 5.97358 22.5261 5.72353 22.2761C5.47348 22.026 5.33301 21.6869 5.33301 21.3333V14.6666C5.33301 13.9593 5.61396 13.2811 6.11406 12.781C6.61415 12.2809 7.29243 11.9999 7.99967 11.9999H23.9997C24.7069 11.9999 25.3852 12.2809 25.8853 12.781C26.3854 13.2811 26.6663 13.9593 26.6663 14.6666V21.3333C26.6663 21.6869 26.5259 22.026 26.2758 22.2761C26.0258 22.5261 25.6866 22.6666 25.333 22.6666H21.333M10.6663 5.33325H21.333V11.9999H10.6663V5.33325ZM10.6663 19.9999H21.333V25.3333H10.6663V19.9999Z" stroke="white" stroke-width="2" stroke-linejoin="round"/>
<path d="M9.33333 17.3334C10.0697 17.3334 10.6667 16.7365 10.6667 16.0001C10.6667 15.2637 10.0697 14.6667 9.33333 14.6667C8.59695 14.6667 8 15.2637 8 16.0001C8 16.7365 8.59695 17.3334 9.33333 17.3334Z" fill="white"/>
</svg>
