<svg width="55" height="55" viewBox="0 0 55 55" fill="none" xmlns="http://www.w3.org/2000/svg">
<path d="M27.5002 0L3.21094 14.0225C3.21094 19.1225 3.69498 23.5762 4.50612 27.5C9.51875 51.7474 27.5002 55 27.5002 55C27.5002 55 45.4815 51.7474 50.4942 27.5C51.3053 23.5762 51.7894 19.1226 51.7894 14.0225L27.5002 0ZM27.5128 50.1363C27.509 50.135 27.504 50.1333 27.5002 50.1321V45.0111V27.5H15.1219H9.78859C9.07209 24.3055 8.59524 20.6781 8.45721 16.5505L27.5 5.55672H27.5002V11.1137V27.5H39.8827H45.2135C41.4258 44.4086 30.8653 49.0675 27.5128 50.1363Z" fill="#212121"/>
</svg>
