<svg width="12" height="10" viewBox="0 0 12 10" fill="none" xmlns="http://www.w3.org/2000/svg">
<g clip-path="url(#clip0_2468_2578)">
<path d="M5.89655 9.21874C6.16021 9.21853 6.41944 9.16125 6.64968 9.05231C6.87992 8.94337 7.07355 8.78639 7.21222 8.59624L6.7405 8.35124L7.21369 8.59374L11.3966 2.73562L11.401 2.72937C11.5024 2.58247 11.5685 2.42003 11.5955 2.25138C11.6225 2.08273 11.61 1.91122 11.5585 1.74671C11.5071 1.5822 11.4178 1.42794 11.2957 1.29281C11.1737 1.15769 11.0213 1.04436 10.8474 0.959368C10.616 0.844993 10.3536 0.783743 10.0853 0.781242L1.70779 0.781242C1.43993 0.78399 1.17748 0.845613 0.946102 0.96009C0.714723 1.07457 0.522323 1.23798 0.387699 1.43437C0.25375 1.63139 0.183609 1.85495 0.184385 2.08237C0.185161 2.30979 0.256828 2.533 0.392121 2.72937L4.57867 8.59374L4.58088 8.59624C4.71865 8.78709 4.91208 8.94463 5.14253 9.05367C5.37297 9.1627 5.63266 9.21955 5.89655 9.21874Z" fill="#212121"/>
</g>
<defs>
<clipPath id="clip0_2468_2578">
<rect width="11.7931" height="10" fill="white" transform="translate(11.793 10) rotate(-180)"/>
</clipPath>
</defs>
</svg>
